<?xml version="1.0" encoding="UTF-8"?>
<svg width="33px" height="60px" viewBox="0 0 33 60" version="1.1" xmlns="http://www.w3.org/2000/svg" xmlns:xlink="http://www.w3.org/1999/xlink">
    <!-- Generator: Sketch 48.2 (47327) - http://www.bohemiancoding.com/sketch -->
    <title>ic_map_car</title>
    <desc>Created with Sketch.</desc>
    <defs>
        <polygon id="path-1" points="0 0.580754717 59.5259169 0.580754717 59.5259169 32.8301887 0 32.8301887"></polygon>
    </defs>
    <g id="Assets" stroke="none" stroke-width="1" fill="none" fill-rule="evenodd">
        <g id="ic_map_car">
            <g id="Page-1" transform="translate(17.000000, 30.000000) rotate(90.000000) translate(-17.000000, -30.000000) translate(-13.033333, 13.018868)">
                <g id="Group-3" transform="translate(0.000000, 0.551660)">
                    <mask id="mask-2" fill="white">
                        <use xlink:href="#path-1"></use>
                    </mask>
                    <g id="Clip-2"></g>
                    <path d="M34.86938,32.8301887 C34.6665133,32.8301887 34.45458,32.8188679 34.2347133,32.7950943 L31.2370467,32.4769811 L31.9635133,30.6984906 C31.33678,30.6984906 30.71118,30.7030189 30.0844467,30.7177358 C29.8226467,30.7245283 29.5597133,30.7675472 29.29678,30.8060377 C28.8638467,30.869434 28.37198,30.9396226 27.83478,30.9396226 C27.5922467,30.9396226 27.3508467,30.9249057 27.1117133,30.8932075 C25.72678,30.7075472 24.3316467,30.6837736 23.2697133,30.6837736 C22.6384467,30.6837736 22.0049133,30.6928302 21.3725133,30.7018868 C20.7174467,30.7120755 20.0635133,30.7222642 19.4084467,30.7222642 C19.00838,30.7222642 18.6083133,30.7188679 18.20938,30.7086792 C15.8452467,30.6543396 13.4788467,30.6396226 11.1147133,30.6260377 C9.96551333,30.6192453 8.81744667,30.6113208 7.66938,30.6 C4.81791333,30.5728302 2.49571333,28.9562264 1.45531333,26.2777358 C0.693713333,24.3169811 0.24378,22.2 0.116846667,19.9856604 C-0.0735533333,16.6449057 -0.13022,13.049434 0.737913333,9.39849057 C0.881846667,8.79396226 1.08471333,8.23132075 1.26378,7.73660377 L1.41224667,7.32 C2.39144667,4.51358491 4.63998,2.91622642 7.74304667,2.82113208 C10.84838,2.72603774 13.9945133,2.7090566 17.0375133,2.69207547 L18.8066467,2.68641509 L24.0290467,2.7 C24.6943133,2.7 25.3618467,2.69773585 26.0282467,2.69207547 C26.2390467,2.68981132 26.52578,2.6490566 26.82838,2.60490566 C27.2590467,2.54150943 27.7452467,2.47132075 28.2779133,2.47132075 C28.5975133,2.47132075 28.89558,2.49622642 29.1868467,2.54830189 C29.97338,2.68754717 30.7916467,2.70679245 31.4886467,2.70679245 C31.64278,2.70679245 31.7969133,2.70566038 31.9510467,2.70339623 L31.26538,1.03471698 L34.16558,0.637358491 C34.4466467,0.597735849 34.7175133,0.580754717 34.9770467,0.580754717 C36.66458,0.580754717 38.09598,1.36754717 38.9278467,2.74641509 C38.98678,2.74867925 39.9535133,2.74867925 39.9535133,2.74867925 C41.8133133,2.74867925 43.6742467,2.77245283 45.53518,2.79622642 C46.7036467,2.8109434 47.8721133,2.82679245 49.04058,2.83584906 C52.80098,2.86528302 55.8292467,4.50339623 57.79558,7.57018868 C58.8337133,9.18792453 59.3958467,11.0649057 59.4672467,13.1490566 C59.5715133,16.2554717 59.5375133,18.7822642 59.35958,21.1030189 C59.1476467,23.8709434 57.91118,26.34 55.7850467,28.2418868 C54.10318,29.7464151 51.98498,30.5139623 49.30918,30.5864151 C45.8876467,30.6803774 42.42078,30.6860377 39.06838,30.6916981 L38.9482467,30.6916981 C37.6800467,32.4441509 36.0537133,32.8301887 34.86938,32.8301887" id="Fill-1" fill="#FDE500" mask="url(#mask-2)"></path>
                </g>
                <path d="M55.4143333,12.0315849 C55.0720667,11.8176226 54.7048667,11.6319623 54.3909333,11.3817736 C53.7506,10.8700755 53.1828,10.2576226 52.5062,9.80479245 C51.3536,9.03384906 50.1375333,8.358 48.9543333,7.63120755 C48.7322,7.49649057 48.5384,7.31875472 48.3582,7.06856604 C49.9754667,6.72328302 51.6142667,6.47649057 53.0128,7.56554717 C54.3807333,8.63083019 55.607,9.87271698 55.6523333,11.7689434 C55.573,11.8561132 55.4936667,11.943283 55.4143333,12.0315849 M53.5341333,26.5278113 C52.0551333,28.0096981 50.2112,27.768566 48.3956,27.5534717 C48.3718,27.5002642 48.348,27.4459245 48.3242,27.392717 C48.5066667,27.2455472 48.6778,27.0802642 48.875,26.958 C50.0899333,26.2063019 51.3354667,25.4998868 52.5186667,24.7029057 C53.1941333,24.2489434 53.7948,23.6749811 54.383,23.1078113 C54.7162,22.787434 55.0199333,22.5247925 55.6115333,22.6595094 C55.7203333,24.3813962 54.5972,25.4613962 53.5341333,26.5278113 M43.2548,25.4998868 C42.8479333,26.5561132 42.806,26.567434 41.7123333,26.3364906 C37.6334667,25.4761132 33.5602667,24.6089434 29.6729333,23.0342264 C28.9068,22.7240377 28.016,22.6787547 27.1750667,22.6142264 C26.4962,22.5610189 25.9907333,22.3595094 25.5102,21.8410189 C24.9979333,21.287434 24.7157333,20.7576226 24.7769333,19.9821509 C24.8132,19.5293208 24.8166,19.0730943 24.8120667,18.6157358 C24.8075333,18.1595094 24.7928,17.7021509 24.7928,17.2447925 C24.7928,16.187434 24.7928,15.1289434 24.7939333,14.0715849 C24.7950667,13.2746038 25.9023333,12.0089434 26.6934,12.0021509 C28.1769333,11.987434 29.5675333,11.5991321 30.9128,11.0364906 C34.2085333,9.65422642 37.7094,9.04969811 41.1706,8.29233962 C42.8581333,7.92328302 42.8751333,7.94479245 43.4622,9.57837736 C45.3752667,14.9104528 45.2925333,20.2198868 43.2548,25.4998868 M34.9202667,27.768566 C32.2626,27.7187547 29.6038,27.6576226 26.945,27.6236604 C26.5177333,27.6191321 26.2536667,27.4764906 26.0474,27.1119623 C25.7346,26.5583774 25.3866667,26.0240377 24.9968,25.3866792 C25.3232,25.3651698 25.5408,25.323283 25.7538667,25.3413962 C28.4002,25.5587547 31.0465333,25.7715849 33.6894667,26.0195094 C34.4272667,26.0896981 34.714,26.4429057 35.3407333,27.7266792 C35.19,27.7425283 35.0551333,27.7708302 34.9202667,27.768566 M26.2956,7.05498113 C26.3590667,6.95875472 26.5381333,6.89196226 26.6639333,6.89083019 C29.5040667,6.8489434 32.3453333,6.81950943 35.1843333,6.78781132 C35.2194667,6.78781132 35.2534667,6.82177358 35.3486667,6.87384906 C35.0381333,7.33460377 34.7389333,7.79649057 34.4204667,8.2425283 C34.357,8.32969811 34.221,8.39535849 34.1099333,8.4134717 C31.1621333,8.9070566 28.1984667,9.22177358 25.2042,9.18101887 C25.1690667,9.17988679 25.1362,9.14592453 25.0149333,9.08139623 C25.4410667,8.40101887 25.8558667,7.71950943 26.2956,7.05498113 M22.9239333,8.8934717 C22.848,9.03724528 22.6122667,9.19120755 22.4536,9.18781132 C20.2345333,9.13007547 18.0166,9.03724528 15.7975333,8.97158491 C15.2297333,8.95460377 15.1458667,8.65120755 15.2342667,8.18932075 C15.4643333,6.97913208 15.2093333,7.17724528 16.371,7.13196226 C18.6308667,7.04479245 20.8918667,6.98818868 23.1528667,6.92026415 C23.3376,6.91460377 23.5212,6.91913208 23.8385333,6.91913208 C23.4996667,7.66403774 23.2356,8.29007547 22.9239333,8.8934717 M23.2424,27.5829057 C20.8170667,27.5183774 18.3906,27.452717 15.9652667,27.3768679 C15.3521333,27.3564906 15.2784667,27.1844151 15.2104667,26.1723396 C15.1742,25.6391321 15.4688667,25.547434 15.8870667,25.5349811 C18.0846,25.4636604 20.281,25.3889434 22.4774,25.3300755 C22.6168,25.3255472 22.8355333,25.4093208 22.8876667,25.5157358 C23.205,26.1587547 23.4838,26.8198868 23.8022667,27.5330943 C23.5574667,27.5568679 23.3988,27.5863019 23.2424,27.5829057 M12.8916667,26.9489434 C12.1527333,26.9489434 11.4126667,26.8323396 10.6726,26.7598868 C10.6646667,26.6659245 10.6544667,26.5719623 10.6465333,26.478 C11.4206,26.3115849 12.1924,26.1247925 12.9732667,26.0025283 C13.1047333,25.9810189 13.2781333,26.2334717 13.4334,26.3602642 C13.2520667,26.5663019 13.0718667,26.9489434 12.8916667,26.9489434 M5.3788,26.4349811 C5.02746667,25.578 4.74526667,24.692717 4.44833333,23.8142264 C4.37353333,23.5923396 4.36673333,23.3466792 4.46306667,23.0478113 C4.60813333,23.2300755 4.794,23.3908302 4.8926,23.5957358 C5.74713333,25.3708302 6.81813333,26.928566 8.9794,27.5851698 C7.52646667,28.3051698 5.91713333,27.7470566 5.3788,26.4349811 M4.44493333,10.6946038 C4.74073333,9.81271698 5.0286,8.92516981 5.38106667,8.06479245 C5.91713333,6.75271698 7.58313333,6.18441509 9.01113333,6.94064151 C6.52686667,7.60743396 5.57826667,9.60215094 4.54126667,11.5096981 L4.34293333,11.4168679 C4.3758,11.1757358 4.369,10.9221509 4.44493333,10.6946038 M11.0046667,24.1583774 C9.78633333,24.6836604 8.602,25.218 7.3984,25.7013962 C6.89973333,25.9029057 6.64926667,25.5100755 6.4328,25.1353585 C5.372,23.2923396 4.692,21.3349811 4.62853333,19.1908302 C4.5594,16.8078113 4.40186667,14.4089434 5.21446667,12.107434 C5.55673333,11.1372453 6.0486,10.218 6.48833333,9.28177358 C6.6606,8.91271698 6.94846667,8.64667925 7.3814,8.82215094 C8.58386667,9.31233962 9.77386667,9.83422642 11.0126,10.3617736 C8.602,14.988566 8.63033333,19.5553585 11.0046667,24.1583774 M10.6669333,7.77271698 C11.3956667,7.69233962 12.1232667,7.60177358 12.8531333,7.53611321 C13.3178,7.49422642 13.4311333,7.86554717 13.3994,8.1870566 C13.3858,8.32177358 13.0072667,8.5470566 12.8316,8.51762264 C12.0938,8.38969811 11.3696,8.18366038 10.6408667,8.00479245 C10.6488,7.92781132 10.6578667,7.85083019 10.6669333,7.77271698 M57.2016,13.7783774 C57.1483333,12.227434 56.7505333,10.6900755 55.8869333,9.34290566 C54.2866667,6.84781132 51.9667333,5.67498113 49.0223333,5.65120755 C45.7515333,5.62630189 42.4796,5.55271698 39.2088,5.56516981 C38.2692667,5.56856604 37.5552667,5.4825283 37.0282667,4.53950943 C36.5477333,3.67686792 35.6739333,3.2670566 34.4737333,3.43120755 C34.7695333,4.15007547 35.0358667,4.79649057 35.3384667,5.53233962 C35.0630667,5.53233962 34.8534,5.5425283 34.6437333,5.53120755 C32.6955333,5.42818868 30.7439333,5.67498113 28.7889333,5.32856604 C27.914,5.17233962 26.9631333,5.49950943 26.0462667,5.50743396 C23.0905333,5.53120755 20.1359333,5.48932075 17.1813333,5.50630189 C14.0578667,5.52441509 10.9332667,5.54139623 7.81206667,5.63649057 C5.78453333,5.69762264 4.25453333,6.60328302 3.553,8.61611321 C3.33766667,9.23196226 3.09286667,9.84101887 2.94326667,10.4738491 C2.16353333,13.7500755 2.1896,17.0783774 2.38,20.4089434 C2.48993333,22.3323396 2.86846667,24.2081887 3.56886667,26.0115849 C4.27606667,27.8330943 5.74713333,28.8689434 7.69193333,28.8881887 C11.2154667,28.923283 14.7401333,28.9153585 18.2625333,28.9968679 C21.3112,29.0681887 24.3655333,28.7919623 27.4142,29.2006415 C28.2619333,29.3149811 29.1572667,29.0263019 30.0322,29.0059245 C31.6347333,28.968566 33.2395333,28.9934717 34.8443333,28.9957358 C34.9996,28.9957358 35.1548667,29.0229057 35.3146667,29.0364906 C35.0302,29.7361132 34.7672667,30.3802642 34.4748667,31.0957358 C35.8983333,31.247434 36.7234,30.588566 37.3206667,29.6013962 C37.6096667,29.1225283 37.9417333,28.9821509 38.4857333,28.9810189 C42.0738667,28.9742264 45.662,28.9730943 49.2478667,28.8746038 C51.0804667,28.8247925 52.8280667,28.3991321 54.2730667,27.1063019 C55.9651333,25.592717 56.9307333,23.6749811 57.0996,21.4810189 C57.2956667,18.9247925 57.2877333,16.3436604 57.2016,13.7783774" id="Fill-4" fill="#000000"></path>
            </g>
        </g>
    </g>
</svg>